<svg xmlns="http://www.w3.org/2000/svg" width="766" height="260" viewBox="0 0 766 260">
  <path d="M68.350 124.500Q72.700 118.800 80.200 114.900Q87.700 111 97.150 111L97.150 111Q107.950 111 116.875 116.325Q125.800 121.650 130.900 131.250Q136 140.850 136 153.300L136 153.300Q136 165.750 130.900 175.575Q125.800 185.400 116.875 190.875Q107.950 196.350 97.150 196.350L97.150 196.350Q87.700 196.350 80.350 192.525Q73 188.700 68.350 183L68.350 183L68.350 234.300L51.250 234.300L51.250 112.350L68.350 112.350L68.350 124.500ZM118.600 153.300Q118.600 144.750 115.075 138.525Q111.550 132.300 105.775 129.075Q100 125.850 93.400 125.850L93.400 125.850Q86.950 125.850 81.175 129.150Q75.400 132.450 71.875 138.750Q68.350 145.050 68.350 153.600L68.350 153.600Q68.350 162.150 71.875 168.525Q75.400 174.900 81.175 178.200Q86.950 181.500 93.400 181.500L93.400 181.500Q100 181.500 105.775 178.125Q111.550 174.750 115.075 168.300Q118.600 161.850 118.600 153.300L118.600 153.300Z" fill="#0F1F45"></path>
  <g>
    <mask id="odots" maskUnits="userSpaceOnUse">
      <rect x="139" y="103" width="100" height="100" fill="#fff"></rect>
      <circle cx="179.22" cy="114.17" r="21.23" fill="#000"></circle>
      <circle cx="201.61" cy="191.18" r="21.23" fill="#000"></circle>
    </mask>
    <circle cx="189.55" cy="153.00" r="40.19" fill="none" stroke="#0F1F45" stroke-width="9.00" mask="url(#odots)"></circle>
    <circle cx="179.22" cy="114.17" r="17.23" fill="#2C7BE5"></circle>
    <circle cx="201.61" cy="191.18" r="17.23" fill="#2DB89A"></circle>
  </g>
  <path d="M257.350 101.400Q252.700 101.400 249.550 98.250Q246.400 95.100 246.400 90.450L246.400 90.450Q246.400 85.800 249.550 82.650Q252.700 79.500 257.350 79.500L257.350 79.500Q261.850 79.500 265 82.650Q268.150 85.800 268.150 90.450L268.150 90.450Q268.150 95.100 265 98.250Q261.850 101.400 257.350 101.400L257.350 101.400ZM248.650 112.350L265.750 112.350L265.750 195L248.650 195L248.650 112.350ZM329.950 111Q339.700 111 347.425 115.050Q355.150 119.100 359.500 127.050Q363.850 135 363.850 146.250L363.850 146.250L363.850 195L346.900 195L346.900 148.800Q346.900 137.700 341.350 131.775Q335.800 125.850 326.200 125.850L326.200 125.850Q316.600 125.850 310.975 131.775Q305.350 137.700 305.350 148.800L305.350 148.800L305.350 195L288.250 195L288.250 112.350L305.350 112.350L305.350 121.800Q309.550 116.700 316.075 113.850Q322.600 111 329.950 111L329.950 111ZM425.650 126.300L405.550 126.300L405.550 172.050Q405.550 176.700 407.725 178.725Q409.900 180.750 415.150 180.750L415.150 180.750L425.650 180.750L425.650 195L412.150 195Q400.600 195 394.450 189.600Q388.300 184.200 388.300 172.050L388.300 172.050L388.300 126.300L378.550 126.300L378.550 112.350L388.300 112.350L388.300 91.800L405.550 91.800L405.550 112.350L425.650 112.350L425.650 126.300Z" fill="#0F1F45"></path>
  <path d="M535.600 112.350L552.400 112.350L526.750 195L508.750 195L492.100 133.950L475.450 195L457.450 195L431.650 112.350L449.050 112.350L466.300 178.800L483.850 112.350L501.700 112.350L518.500 178.500L535.600 112.350ZM640.900 151.650Q640.900 156.300 640.300 160.050L640.300 160.050L577.150 160.050Q577.900 169.950 584.500 175.950Q591.100 181.950 600.700 181.950L600.700 181.950Q614.500 181.950 620.200 170.400L620.200 170.400L638.650 170.400Q634.900 181.800 625.075 189.075Q615.250 196.350 600.700 196.350L600.700 196.350Q588.850 196.350 579.475 191.025Q570.100 185.700 564.775 176.025Q559.450 166.350 559.450 153.600L559.450 153.600Q559.450 140.850 564.625 131.175Q569.800 121.500 579.175 116.250Q588.550 111 600.700 111L600.700 111Q612.400 111 621.550 116.100Q630.700 121.200 635.800 130.425Q640.900 139.650 640.900 151.650L640.900 151.650ZM577.300 146.250L623.050 146.250Q622.900 136.800 616.300 131.100Q609.700 125.400 599.950 125.400L599.950 125.400Q591.100 125.400 584.800 131.025Q578.500 136.650 577.300 146.250L577.300 146.250ZM657.700 84L674.800 84L674.800 195L657.700 195L657.700 84ZM697.300 84L714.400 84L714.400 195L697.300 195L697.300 84Z" fill="#2C6FF0"></path>
</svg>